<?xml version="1.0" encoding="UTF-8" standalone="no"?>
<!DOCTYPE svg PUBLIC "-//W3C//DTD SVG 1.1//EN"
 "http://www.w3.org/Graphics/SVG/1.1/DTD/svg11.dtd">
<!-- Generated by graphviz version 12.2.1 (20241206.2353)
 -->
<!-- Pages: 1 -->
<svg width="1138pt" height="128pt"
 viewBox="0.00 0.00 1137.50 128.00" xmlns="http://www.w3.org/2000/svg" xmlns:xlink="http://www.w3.org/1999/xlink">
<g id="graph0" class="graph" transform="scale(1 1) rotate(0) translate(4 124)">
<polygon fill="white" stroke="none" points="-4,4 -4,-124 1133.5,-124 1133.5,4 -4,4"/>
<!-- 4830953984 -->
<g id="node1" class="node">
<title>4830953984</title>
<polygon fill="none" stroke="black" points="630,-27.5 630,-63.5 818.25,-63.5 818.25,-27.5 630,-27.5"/>
<text text-anchor="middle" x="641.38" y="-40.7" font-family="Times,serif" font-size="14.00">d</text>
<polyline fill="none" stroke="black" points="652.75,-28 652.75,-63.5"/>
<text text-anchor="middle" x="692.62" y="-40.7" font-family="Times,serif" font-size="14.00">data 4.0000</text>
<polyline fill="none" stroke="black" points="732.5,-28 732.5,-63.5"/>
<text text-anchor="middle" x="775.38" y="-40.7" font-family="Times,serif" font-size="14.00">grad &#45;2.0000</text>
</g>
<!-- 4991304720* -->
<g id="node4" class="node">
<title>4991304720*</title>
<ellipse fill="none" stroke="black" cx="881.25" cy="-72.5" rx="27" ry="18"/>
<text text-anchor="middle" x="881.25" y="-67.45" font-family="Times,serif" font-size="14.00">*</text>
</g>
<!-- 4830953984&#45;&gt;4991304720* -->
<g id="edge5" class="edge">
<title>4830953984&#45;&gt;4991304720*</title>
<path fill="none" stroke="black" d="M818.49,-61.75C827.27,-63.28 835.77,-64.76 843.51,-66.1"/>
<polygon fill="black" stroke="black" points="842.66,-69.51 853.11,-67.78 843.86,-62.61 842.66,-69.51"/>
</g>
<!-- 4830953984+ -->
<g id="node2" class="node">
<title>4830953984+</title>
<ellipse fill="none" stroke="black" cx="567" cy="-45.5" rx="27" ry="18"/>
<text text-anchor="middle" x="567" y="-40.45" font-family="Times,serif" font-size="14.00">+</text>
</g>
<!-- 4830953984+&#45;&gt;4830953984 -->
<g id="edge1" class="edge">
<title>4830953984+&#45;&gt;4830953984</title>
<path fill="none" stroke="black" d="M594.31,-45.5C601.49,-45.5 609.72,-45.5 618.47,-45.5"/>
<polygon fill="black" stroke="black" points="618.29,-49 628.29,-45.5 618.29,-42 618.29,-49"/>
</g>
<!-- 4991304720 -->
<g id="node3" class="node">
<title>4991304720</title>
<polygon fill="none" stroke="black" points="944.25,-54.5 944.25,-90.5 1129.5,-90.5 1129.5,-54.5 944.25,-54.5"/>
<text text-anchor="middle" x="954.12" y="-67.7" font-family="Times,serif" font-size="14.00"> </text>
<polyline fill="none" stroke="black" points="964,-55 964,-90.5"/>
<text text-anchor="middle" x="1006.12" y="-67.7" font-family="Times,serif" font-size="14.00">data &#45;8.0000</text>
<polyline fill="none" stroke="black" points="1048.25,-55 1048.25,-90.5"/>
<text text-anchor="middle" x="1088.88" y="-67.7" font-family="Times,serif" font-size="14.00">grad 1.0000</text>
</g>
<!-- 4991304720*&#45;&gt;4991304720 -->
<g id="edge2" class="edge">
<title>4991304720*&#45;&gt;4991304720</title>
<path fill="none" stroke="black" d="M908.66,-72.5C915.7,-72.5 923.75,-72.5 932.3,-72.5"/>
<polygon fill="black" stroke="black" points="932.29,-76 942.29,-72.5 932.29,-69 932.29,-76"/>
</g>
<!-- 4993046176 -->
<g id="node5" class="node">
<title>4993046176</title>
<polygon fill="none" stroke="black" points="2.62,-83.5 2.62,-119.5 185.62,-119.5 185.62,-83.5 2.62,-83.5"/>
<text text-anchor="middle" x="13.62" y="-96.7" font-family="Times,serif" font-size="14.00">a</text>
<polyline fill="none" stroke="black" points="24.62,-84 24.62,-119.5"/>
<text text-anchor="middle" x="64.5" y="-96.7" font-family="Times,serif" font-size="14.00">data 2.0000</text>
<polyline fill="none" stroke="black" points="104.38,-84 104.38,-119.5"/>
<text text-anchor="middle" x="145" y="-96.7" font-family="Times,serif" font-size="14.00">grad 0.0000</text>
</g>
<!-- 4993040560* -->
<g id="node7" class="node">
<title>4993040560*</title>
<ellipse fill="none" stroke="black" cx="251.25" cy="-73.5" rx="27" ry="18"/>
<text text-anchor="middle" x="251.25" y="-68.45" font-family="Times,serif" font-size="14.00">*</text>
</g>
<!-- 4993046176&#45;&gt;4993040560* -->
<g id="edge9" class="edge">
<title>4993046176&#45;&gt;4993040560*</title>
<path fill="none" stroke="black" d="M185.81,-85.13C195.66,-83.35 205.21,-81.63 213.82,-80.08"/>
<polygon fill="black" stroke="black" points="214.19,-83.57 223.41,-78.34 212.95,-76.68 214.19,-83.57"/>
</g>
<!-- 4993040560 -->
<g id="node6" class="node">
<title>4993040560</title>
<polygon fill="none" stroke="black" points="315.38,-55.5 315.38,-91.5 502.88,-91.5 502.88,-55.5 315.38,-55.5"/>
<text text-anchor="middle" x="326.38" y="-68.7" font-family="Times,serif" font-size="14.00">e</text>
<polyline fill="none" stroke="black" points="337.38,-56 337.38,-91.5"/>
<text text-anchor="middle" x="379.5" y="-68.7" font-family="Times,serif" font-size="14.00">data &#45;6.0000</text>
<polyline fill="none" stroke="black" points="421.62,-56 421.62,-91.5"/>
<text text-anchor="middle" x="462.25" y="-68.7" font-family="Times,serif" font-size="14.00">grad 0.0000</text>
</g>
<!-- 4993040560&#45;&gt;4830953984+ -->
<g id="edge6" class="edge">
<title>4993040560&#45;&gt;4830953984+</title>
<path fill="none" stroke="black" d="M503.05,-56.81C512.25,-55.16 521.16,-53.56 529.24,-52.1"/>
<polygon fill="black" stroke="black" points="529.71,-55.58 538.93,-50.36 528.47,-48.69 529.71,-55.58"/>
</g>
<!-- 4993040560*&#45;&gt;4993040560 -->
<g id="edge3" class="edge">
<title>4993040560*&#45;&gt;4993040560</title>
<path fill="none" stroke="black" d="M278.69,-73.5C286.1,-73.5 294.64,-73.5 303.71,-73.5"/>
<polygon fill="black" stroke="black" points="303.51,-77 313.51,-73.5 303.51,-70 303.51,-77"/>
</g>
<!-- 5002474368 -->
<g id="node8" class="node">
<title>5002474368</title>
<polygon fill="none" stroke="black" points="631.12,-82.5 631.12,-118.5 817.12,-118.5 817.12,-82.5 631.12,-82.5"/>
<text text-anchor="middle" x="641.38" y="-95.7" font-family="Times,serif" font-size="14.00">f</text>
<polyline fill="none" stroke="black" points="651.62,-83 651.62,-118.5"/>
<text text-anchor="middle" x="693.75" y="-95.7" font-family="Times,serif" font-size="14.00">data &#45;2.0000</text>
<polyline fill="none" stroke="black" points="735.88,-83 735.88,-118.5"/>
<text text-anchor="middle" x="776.5" y="-95.7" font-family="Times,serif" font-size="14.00">grad 4.0000</text>
</g>
<!-- 5002474368&#45;&gt;4991304720* -->
<g id="edge8" class="edge">
<title>5002474368&#45;&gt;4991304720*</title>
<path fill="none" stroke="black" d="M817.6,-83.81C826.76,-82.16 835.62,-80.56 843.67,-79.1"/>
<polygon fill="black" stroke="black" points="844.09,-82.58 853.31,-77.36 842.84,-75.7 844.09,-82.58"/>
</g>
<!-- 4825594720 -->
<g id="node9" class="node">
<title>4825594720</title>
<polygon fill="none" stroke="black" points="0,-28.5 0,-64.5 188.25,-64.5 188.25,-28.5 0,-28.5"/>
<text text-anchor="middle" x="11.38" y="-41.7" font-family="Times,serif" font-size="14.00">b</text>
<polyline fill="none" stroke="black" points="22.75,-29 22.75,-64.5"/>
<text text-anchor="middle" x="64.88" y="-41.7" font-family="Times,serif" font-size="14.00">data &#45;3.0000</text>
<polyline fill="none" stroke="black" points="107,-29 107,-64.5"/>
<text text-anchor="middle" x="147.62" y="-41.7" font-family="Times,serif" font-size="14.00">grad 0.0000</text>
</g>
<!-- 4825594720&#45;&gt;4993040560* -->
<g id="edge7" class="edge">
<title>4825594720&#45;&gt;4993040560*</title>
<path fill="none" stroke="black" d="M188.49,-62.75C197.27,-64.28 205.77,-65.76 213.51,-67.1"/>
<polygon fill="black" stroke="black" points="212.66,-70.51 223.11,-68.78 213.86,-63.61 212.66,-70.51"/>
</g>
<!-- 4999443328 -->
<g id="node10" class="node">
<title>4999443328</title>
<polygon fill="none" stroke="black" points="314.25,-0.5 314.25,-36.5 504,-36.5 504,-0.5 314.25,-0.5"/>
<text text-anchor="middle" x="325.25" y="-13.7" font-family="Times,serif" font-size="14.00">c</text>
<polyline fill="none" stroke="black" points="336.25,-1 336.25,-36.5"/>
<text text-anchor="middle" x="379.5" y="-13.7" font-family="Times,serif" font-size="14.00">data 10.0000</text>
<polyline fill="none" stroke="black" points="422.75,-1 422.75,-36.5"/>
<text text-anchor="middle" x="463.38" y="-13.7" font-family="Times,serif" font-size="14.00">grad 0.0000</text>
</g>
<!-- 4999443328&#45;&gt;4830953984+ -->
<g id="edge4" class="edge">
<title>4999443328&#45;&gt;4830953984+</title>
<path fill="none" stroke="black" d="M504.39,-34.83C513.16,-36.35 521.65,-37.82 529.37,-39.15"/>
<polygon fill="black" stroke="black" points="528.5,-42.56 538.95,-40.81 529.69,-35.66 528.5,-42.56"/>
</g>
</g>
</svg>
